<?xml version="1.0" encoding="UTF-8"?>
<svg xmlns="http://www.w3.org/2000/svg" viewBox="0 0 1200 1100" width="1200" height="1100">
<style>text { font-family: system-ui, -apple-system, 'Segoe UI', Helvetica, Arial, sans-serif; }</style>

<!-- Background -->
<rect width="1200" height="1000" fill="#f8fafc"/>

<!-- ===== HEADER ===== -->
<rect width="1200" height="80" fill="#0f172a"/>
<text x="600" y="43" text-anchor="middle" font-size="23" font-weight="bold" fill="white">VERTICAL SPREADS — CHEAT SHEET</text>
<text x="600" y="66" text-anchor="middle" font-size="13" fill="#94a3b8">Options strategies quick reference  ·  Bull Call  ·  Bear Call  ·  Bull Put  ·  Bear Put</text>

<!-- ===== COLUMN HEADERS ===== -->
<rect x="0" y="80" width="600" height="35" fill="#1e3a5f"/>
<text x="300" y="103" text-anchor="middle" font-size="14" font-weight="bold" fill="#60a5fa">CALL SPREADS</text>
<rect x="600" y="80" width="600" height="35" fill="#2d1b69"/>
<text x="900" y="103" text-anchor="middle" font-size="14" font-weight="bold" fill="#c084fc">PUT SPREADS</text>

<!-- Structural dividers -->
<rect x="598" y="115" width="4" height="805" fill="#e2e8f0"/>
<rect x="0" y="517" width="1200" height="3" fill="#e2e8f0"/>

<!-- ===================================================== -->
<!-- CARD 1: BULL CALL SPREAD  (top-left)                  -->
<!-- ===================================================== -->
<g transform="translate(5, 115)">
  <rect width="590" height="400" rx="8" fill="white" stroke="#bbf7d0" stroke-width="1.5"/>
  <!-- Header: rounded top only -->
  <path d="M 8,0 H 582 a 8,8 0 0 1 8,8 V 55 H 0 V 8 a 8,8 0 0 1 8,-8 z" fill="#16a34a"/>
  <text x="20" y="33" font-size="17" font-weight="bold" fill="white">BULL CALL SPREAD</text>
  <rect x="325" y="13" width="118" height="25" rx="12" fill="rgba(255,255,255,0.2)"/>
  <text x="384" y="29" text-anchor="middle" font-size="12" fill="white">&#8593;  BULLISH</text>
  <rect x="453" y="13" width="112" height="25" rx="12" fill="#991b1b"/>
  <text x="509" y="29" text-anchor="middle" font-size="12" font-weight="bold" fill="white">DEBIT</text>

  <!-- STRUCTURE -->
  <text x="20" y="68" font-size="10" font-weight="bold" fill="#64748b" letter-spacing="1">STRUCTURE</text>
  <rect x="20" y="74" width="42" height="22" rx="3" fill="#15803d"/>
  <text x="41" y="89" text-anchor="middle" font-size="11" font-weight="bold" fill="white">BUY</text>
  <text x="68" y="89" font-size="13" fill="#1e293b">Lower-strike call  (e.g. $60 call)</text>
  <rect x="20" y="99" width="42" height="22" rx="3" fill="#b91c1c"/>
  <text x="41" y="114" text-anchor="middle" font-size="11" font-weight="bold" fill="white">SELL</text>
  <text x="68" y="114" font-size="13" fill="#1e293b">Higher-strike call  (e.g. $65 call)</text>
  <line x1="15" y1="127" x2="575" y2="127" stroke="#e2e8f0" stroke-width="1"/>

  <!-- KEY NUMBERS -->
  <text x="20" y="141" font-size="10" font-weight="bold" fill="#64748b" letter-spacing="1">KEY NUMBERS</text>
  <text x="20" y="158" font-size="12" font-weight="bold" fill="#15803d">Max Profit</text>
  <text x="115" y="158" font-size="12" fill="#374151">Spread Width &#8722; Debit Paid</text>
  <text x="440" y="158" font-size="11" fill="#9ca3af">e.g. $300</text>
  <text x="20" y="175" font-size="12" font-weight="bold" fill="#b91c1c">Max Loss</text>
  <text x="115" y="175" font-size="12" fill="#374151">Debit Paid</text>
  <text x="440" y="175" font-size="11" fill="#9ca3af">e.g. $200</text>
  <text x="20" y="192" font-size="12" font-weight="bold" fill="#374151">Breakeven</text>
  <text x="115" y="192" font-size="12" fill="#374151">Lower Strike + Debit</text>
  <text x="440" y="192" font-size="11" fill="#9ca3af">e.g. $62</text>
  <line x1="15" y1="205" x2="575" y2="205" stroke="#e2e8f0" stroke-width="1"/>

  <!-- P&L CHART -->
  <text x="20" y="219" font-size="10" font-weight="bold" fill="#64748b" letter-spacing="1">P&amp;L DIAGRAM</text>
  <rect x="25" y="225" width="540" height="38" fill="#dcfce7"/>
  <rect x="25" y="263" width="540" height="38" fill="#fee2e2"/>
  <rect x="25" y="225" width="540" height="76" fill="none" stroke="#e2e8f0" stroke-width="1"/>
  <line x1="25" y1="263" x2="565" y2="263" stroke="#94a3b8" stroke-width="1" stroke-dasharray="5,3"/>
  <line x1="125" y1="225" x2="125" y2="301" stroke="#cbd5e1" stroke-width="1" stroke-dasharray="2,2"/>
  <line x1="465" y1="225" x2="465" y2="301" stroke="#cbd5e1" stroke-width="1" stroke-dasharray="2,2"/>
  <line x1="295" y1="225" x2="295" y2="301" stroke="#94a3b8" stroke-width="1.5"/>
  <polyline points="25,298 125,298 465,228 565,228" fill="none" stroke="#16a34a" stroke-width="2.5" stroke-linejoin="round" stroke-linecap="round"/>
  <text x="458" y="243" text-anchor="end" font-size="10" fill="#15803d" font-weight="bold">MAX PROFIT</text>
  <text x="30" y="295" font-size="10" fill="#b91c1c" font-weight="bold">MAX LOSS</text>
  <text x="295" y="260" text-anchor="middle" font-size="9" fill="#64748b">B/E</text>
  <text x="125" y="311" text-anchor="middle" font-size="9" fill="#9ca3af">$60</text>
  <text x="465" y="311" text-anchor="middle" font-size="9" fill="#9ca3af">$65</text>
  <text x="543" y="300" font-size="10" fill="#9ca3af">Stock &#8594;</text>
  <line x1="15" y1="317" x2="575" y2="317" stroke="#e2e8f0" stroke-width="1"/>

  <!-- GREEKS -->
  <text x="20" y="331" font-size="10" font-weight="bold" fill="#64748b" letter-spacing="1">GREEKS AT A GLANCE</text>
  <text x="20" y="348" font-size="12" fill="#374151">Delta (&#916;)</text>
  <text x="95" y="348" font-size="13" font-weight="bold" fill="#15803d">+ Positive</text>
  <text x="210" y="348" font-size="11" fill="#64748b">profits when stock rises</text>
  <text x="20" y="364" font-size="12" fill="#374151">Theta (&#952;)</text>
  <text x="95" y="364" font-size="13" font-weight="bold" fill="#b91c1c">&#8722; Against you</text>
  <text x="215" y="364" font-size="11" fill="#64748b">time decay costs you daily</text>
  <text x="20" y="380" font-size="12" fill="#374151">Gamma (&#947;)</text>
  <text x="95" y="380" font-size="13" font-weight="bold" fill="#15803d">+ Positive</text>
  <text x="210" y="380" font-size="11" fill="#64748b">big moves accelerate gains</text>
  <line x1="15" y1="390" x2="575" y2="390" stroke="#e2e8f0" stroke-width="1"/>
  <text x="20" y="396" font-size="11" fill="#374151"><tspan font-weight="bold">Best when: </tspan>Moderately bullish; stock expected to rise past upper strike</text>
</g>

<!-- ===================================================== -->
<!-- CARD 2: BULL PUT SPREAD  (top-right)                  -->
<!-- ===================================================== -->
<g transform="translate(605, 115)">
  <rect width="590" height="400" rx="8" fill="white" stroke="#bbf7d0" stroke-width="1.5"/>
  <path d="M 8,0 H 582 a 8,8 0 0 1 8,8 V 55 H 0 V 8 a 8,8 0 0 1 8,-8 z" fill="#16a34a"/>
  <text x="20" y="33" font-size="17" font-weight="bold" fill="white">BULL PUT SPREAD</text>
  <rect x="295" y="13" width="148" height="25" rx="12" fill="rgba(255,255,255,0.2)"/>
  <text x="369" y="29" text-anchor="middle" font-size="12" fill="white">&#8593;&#8596;  NEUTRAL/BULLISH</text>
  <rect x="453" y="13" width="112" height="25" rx="12" fill="#14532d"/>
  <text x="509" y="29" text-anchor="middle" font-size="12" font-weight="bold" fill="white">CREDIT</text>

  <text x="20" y="68" font-size="10" font-weight="bold" fill="#64748b" letter-spacing="1">STRUCTURE</text>
  <rect x="20" y="74" width="42" height="22" rx="3" fill="#b91c1c"/>
  <text x="41" y="89" text-anchor="middle" font-size="11" font-weight="bold" fill="white">SELL</text>
  <text x="68" y="89" font-size="13" fill="#1e293b">Higher-strike put  (e.g. $95 put)</text>
  <rect x="20" y="99" width="42" height="22" rx="3" fill="#15803d"/>
  <text x="41" y="114" text-anchor="middle" font-size="11" font-weight="bold" fill="white">BUY</text>
  <text x="68" y="114" font-size="13" fill="#1e293b">Lower-strike put    (e.g. $90 put)</text>
  <line x1="15" y1="127" x2="575" y2="127" stroke="#e2e8f0" stroke-width="1"/>

  <text x="20" y="141" font-size="10" font-weight="bold" fill="#64748b" letter-spacing="1">KEY NUMBERS</text>
  <text x="20" y="158" font-size="12" font-weight="bold" fill="#15803d">Max Profit</text>
  <text x="115" y="158" font-size="12" fill="#374151">Credit Received</text>
  <text x="440" y="158" font-size="11" fill="#9ca3af">e.g. $220</text>
  <text x="20" y="175" font-size="12" font-weight="bold" fill="#b91c1c">Max Loss</text>
  <text x="115" y="175" font-size="12" fill="#374151">Spread Width &#8722; Credit</text>
  <text x="440" y="175" font-size="11" fill="#9ca3af">e.g. $280</text>
  <text x="20" y="192" font-size="12" font-weight="bold" fill="#374151">Breakeven</text>
  <text x="115" y="192" font-size="12" fill="#374151">Higher Strike &#8722; Credit</text>
  <text x="440" y="192" font-size="11" fill="#9ca3af">e.g. $92.80</text>
  <line x1="15" y1="205" x2="575" y2="205" stroke="#e2e8f0" stroke-width="1"/>

  <text x="20" y="219" font-size="10" font-weight="bold" fill="#64748b" letter-spacing="1">P&amp;L DIAGRAM</text>
  <rect x="25" y="225" width="540" height="38" fill="#dcfce7"/>
  <rect x="25" y="263" width="540" height="38" fill="#fee2e2"/>
  <rect x="25" y="225" width="540" height="76" fill="none" stroke="#e2e8f0" stroke-width="1"/>
  <line x1="25" y1="263" x2="565" y2="263" stroke="#94a3b8" stroke-width="1" stroke-dasharray="5,3"/>
  <line x1="125" y1="225" x2="125" y2="301" stroke="#cbd5e1" stroke-width="1" stroke-dasharray="2,2"/>
  <line x1="465" y1="225" x2="465" y2="301" stroke="#cbd5e1" stroke-width="1" stroke-dasharray="2,2"/>
  <line x1="295" y1="225" x2="295" y2="301" stroke="#94a3b8" stroke-width="1.5"/>
  <polyline points="25,298 125,298 465,228 565,228" fill="none" stroke="#16a34a" stroke-width="2.5" stroke-linejoin="round" stroke-linecap="round"/>
  <text x="458" y="243" text-anchor="end" font-size="10" fill="#15803d" font-weight="bold">MAX PROFIT</text>
  <text x="30" y="295" font-size="10" fill="#b91c1c" font-weight="bold">MAX LOSS</text>
  <text x="295" y="260" text-anchor="middle" font-size="9" fill="#64748b">B/E</text>
  <text x="125" y="311" text-anchor="middle" font-size="9" fill="#9ca3af">$90</text>
  <text x="465" y="311" text-anchor="middle" font-size="9" fill="#9ca3af">$95</text>
  <text x="543" y="300" font-size="10" fill="#9ca3af">Stock &#8594;</text>
  <line x1="15" y1="317" x2="575" y2="317" stroke="#e2e8f0" stroke-width="1"/>

  <text x="20" y="331" font-size="10" font-weight="bold" fill="#64748b" letter-spacing="1">GREEKS AT A GLANCE</text>
  <text x="20" y="348" font-size="12" fill="#374151">Delta (&#916;)</text>
  <text x="95" y="348" font-size="13" font-weight="bold" fill="#15803d">+ Positive</text>
  <text x="210" y="348" font-size="11" fill="#64748b">profits when stock holds steady</text>
  <text x="20" y="364" font-size="12" fill="#374151">Theta (&#952;)</text>
  <text x="95" y="364" font-size="13" font-weight="bold" fill="#15803d">+ For you</text>
  <text x="185" y="364" font-size="11" fill="#64748b">time decay earns you money</text>
  <text x="20" y="380" font-size="12" fill="#374151">Gamma (&#947;)</text>
  <text x="95" y="380" font-size="13" font-weight="bold" fill="#b91c1c">&#8722; Negative</text>
  <text x="200" y="380" font-size="11" fill="#64748b">sharp drops hurt you</text>
  <line x1="15" y1="390" x2="575" y2="390" stroke="#e2e8f0" stroke-width="1"/>
  <text x="20" y="396" font-size="11" fill="#374151"><tspan font-weight="bold">Best when: </tspan>Neutral to bullish; collect premium while stock stays above put strike</text>
</g>

<!-- ===================================================== -->
<!-- CARD 3: BEAR CALL SPREAD  (bottom-left)               -->
<!-- ===================================================== -->
<g transform="translate(5, 520)">
  <rect width="590" height="400" rx="8" fill="white" stroke="#fecaca" stroke-width="1.5"/>
  <path d="M 8,0 H 582 a 8,8 0 0 1 8,8 V 55 H 0 V 8 a 8,8 0 0 1 8,-8 z" fill="#dc2626"/>
  <text x="20" y="33" font-size="17" font-weight="bold" fill="white">BEAR CALL SPREAD</text>
  <rect x="295" y="13" width="148" height="25" rx="12" fill="rgba(255,255,255,0.2)"/>
  <text x="369" y="29" text-anchor="middle" font-size="12" fill="white">&#8595;&#8596;  NEUTRAL/BEARISH</text>
  <rect x="453" y="13" width="112" height="25" rx="12" fill="#14532d"/>
  <text x="509" y="29" text-anchor="middle" font-size="12" font-weight="bold" fill="white">CREDIT</text>

  <text x="20" y="68" font-size="10" font-weight="bold" fill="#64748b" letter-spacing="1">STRUCTURE</text>
  <rect x="20" y="74" width="42" height="22" rx="3" fill="#b91c1c"/>
  <text x="41" y="89" text-anchor="middle" font-size="11" font-weight="bold" fill="white">SELL</text>
  <text x="68" y="89" font-size="13" fill="#1e293b">Lower-strike call  (e.g. $50 call)</text>
  <rect x="20" y="99" width="42" height="22" rx="3" fill="#15803d"/>
  <text x="41" y="114" text-anchor="middle" font-size="11" font-weight="bold" fill="white">BUY</text>
  <text x="68" y="114" font-size="13" fill="#1e293b">Higher-strike call  (e.g. $55 call)</text>
  <line x1="15" y1="127" x2="575" y2="127" stroke="#e2e8f0" stroke-width="1"/>

  <text x="20" y="141" font-size="10" font-weight="bold" fill="#64748b" letter-spacing="1">KEY NUMBERS</text>
  <text x="20" y="158" font-size="12" font-weight="bold" fill="#15803d">Max Profit</text>
  <text x="115" y="158" font-size="12" fill="#374151">Credit Received</text>
  <text x="440" y="158" font-size="11" fill="#9ca3af">e.g. $160</text>
  <text x="20" y="175" font-size="12" font-weight="bold" fill="#b91c1c">Max Loss</text>
  <text x="115" y="175" font-size="12" fill="#374151">Spread Width &#8722; Credit</text>
  <text x="440" y="175" font-size="11" fill="#9ca3af">e.g. $340</text>
  <text x="20" y="192" font-size="12" font-weight="bold" fill="#374151">Breakeven</text>
  <text x="115" y="192" font-size="12" fill="#374151">Short Strike + Credit</text>
  <text x="440" y="192" font-size="11" fill="#9ca3af">e.g. $51.60</text>
  <line x1="15" y1="205" x2="575" y2="205" stroke="#e2e8f0" stroke-width="1"/>

  <text x="20" y="219" font-size="10" font-weight="bold" fill="#64748b" letter-spacing="1">P&amp;L DIAGRAM</text>
  <rect x="25" y="225" width="540" height="38" fill="#dcfce7"/>
  <rect x="25" y="263" width="540" height="38" fill="#fee2e2"/>
  <rect x="25" y="225" width="540" height="76" fill="none" stroke="#e2e8f0" stroke-width="1"/>
  <line x1="25" y1="263" x2="565" y2="263" stroke="#94a3b8" stroke-width="1" stroke-dasharray="5,3"/>
  <line x1="125" y1="225" x2="125" y2="301" stroke="#cbd5e1" stroke-width="1" stroke-dasharray="2,2"/>
  <line x1="465" y1="225" x2="465" y2="301" stroke="#cbd5e1" stroke-width="1" stroke-dasharray="2,2"/>
  <line x1="295" y1="225" x2="295" y2="301" stroke="#94a3b8" stroke-width="1.5"/>
  <!-- BEARISH P&L line -->
  <polyline points="25,228 125,228 465,298 565,298" fill="none" stroke="#dc2626" stroke-width="2.5" stroke-linejoin="round" stroke-linecap="round"/>
  <text x="30" y="243" font-size="10" fill="#15803d" font-weight="bold">MAX PROFIT</text>
  <text x="458" y="295" text-anchor="end" font-size="10" fill="#b91c1c" font-weight="bold">MAX LOSS</text>
  <text x="295" y="260" text-anchor="middle" font-size="9" fill="#64748b">B/E</text>
  <text x="125" y="311" text-anchor="middle" font-size="9" fill="#9ca3af">$50</text>
  <text x="465" y="311" text-anchor="middle" font-size="9" fill="#9ca3af">$55</text>
  <text x="543" y="300" font-size="10" fill="#9ca3af">Stock &#8594;</text>
  <line x1="15" y1="317" x2="575" y2="317" stroke="#e2e8f0" stroke-width="1"/>

  <text x="20" y="331" font-size="10" font-weight="bold" fill="#64748b" letter-spacing="1">GREEKS AT A GLANCE</text>
  <text x="20" y="348" font-size="12" fill="#374151">Delta (&#916;)</text>
  <text x="95" y="348" font-size="13" font-weight="bold" fill="#b91c1c">&#8722; Negative</text>
  <text x="200" y="348" font-size="11" fill="#64748b">profits when stock falls or stays flat</text>
  <text x="20" y="364" font-size="12" fill="#374151">Theta (&#952;)</text>
  <text x="95" y="364" font-size="13" font-weight="bold" fill="#15803d">+ For you</text>
  <text x="185" y="364" font-size="11" fill="#64748b">time decay earns you money</text>
  <text x="20" y="380" font-size="12" fill="#374151">Gamma (&#947;)</text>
  <text x="95" y="380" font-size="13" font-weight="bold" fill="#b91c1c">&#8722; Negative</text>
  <text x="200" y="380" font-size="11" fill="#64748b">sharp upward moves hurt you</text>
  <line x1="15" y1="390" x2="575" y2="390" stroke="#e2e8f0" stroke-width="1"/>
  <text x="20" y="396" font-size="11" fill="#374151"><tspan font-weight="bold">Best when: </tspan>Neutral to bearish; stock expected to stay below short call strike</text>
</g>

<!-- ===================================================== -->
<!-- CARD 4: BEAR PUT SPREAD  (bottom-right)               -->
<!-- ===================================================== -->
<g transform="translate(605, 520)">
  <rect width="590" height="400" rx="8" fill="white" stroke="#fecaca" stroke-width="1.5"/>
  <path d="M 8,0 H 582 a 8,8 0 0 1 8,8 V 55 H 0 V 8 a 8,8 0 0 1 8,-8 z" fill="#dc2626"/>
  <text x="20" y="33" font-size="17" font-weight="bold" fill="white">BEAR PUT SPREAD</text>
  <rect x="325" y="13" width="118" height="25" rx="12" fill="rgba(255,255,255,0.2)"/>
  <text x="384" y="29" text-anchor="middle" font-size="12" fill="white">&#8595;  BEARISH</text>
  <rect x="453" y="13" width="112" height="25" rx="12" fill="#991b1b"/>
  <text x="509" y="29" text-anchor="middle" font-size="12" font-weight="bold" fill="white">DEBIT</text>

  <text x="20" y="68" font-size="10" font-weight="bold" fill="#64748b" letter-spacing="1">STRUCTURE</text>
  <rect x="20" y="74" width="42" height="22" rx="3" fill="#15803d"/>
  <text x="41" y="89" text-anchor="middle" font-size="11" font-weight="bold" fill="white">BUY</text>
  <text x="68" y="89" font-size="13" fill="#1e293b">Higher-strike put  (e.g. $75 put)</text>
  <rect x="20" y="99" width="42" height="22" rx="3" fill="#b91c1c"/>
  <text x="41" y="114" text-anchor="middle" font-size="11" font-weight="bold" fill="white">SELL</text>
  <text x="68" y="114" font-size="13" fill="#1e293b">Lower-strike put    (e.g. $70 put)</text>
  <line x1="15" y1="127" x2="575" y2="127" stroke="#e2e8f0" stroke-width="1"/>

  <text x="20" y="141" font-size="10" font-weight="bold" fill="#64748b" letter-spacing="1">KEY NUMBERS</text>
  <text x="20" y="158" font-size="12" font-weight="bold" fill="#15803d">Max Profit</text>
  <text x="115" y="158" font-size="12" fill="#374151">Spread Width &#8722; Debit</text>
  <text x="440" y="158" font-size="11" fill="#9ca3af">e.g. $250</text>
  <text x="20" y="175" font-size="12" font-weight="bold" fill="#b91c1c">Max Loss</text>
  <text x="115" y="175" font-size="12" fill="#374151">Debit Paid</text>
  <text x="440" y="175" font-size="11" fill="#9ca3af">e.g. $250</text>
  <text x="20" y="192" font-size="12" font-weight="bold" fill="#374151">Breakeven</text>
  <text x="115" y="192" font-size="12" fill="#374151">Higher Strike &#8722; Debit</text>
  <text x="440" y="192" font-size="11" fill="#9ca3af">e.g. $72.50</text>
  <line x1="15" y1="205" x2="575" y2="205" stroke="#e2e8f0" stroke-width="1"/>

  <text x="20" y="219" font-size="10" font-weight="bold" fill="#64748b" letter-spacing="1">P&amp;L DIAGRAM</text>
  <rect x="25" y="225" width="540" height="38" fill="#dcfce7"/>
  <rect x="25" y="263" width="540" height="38" fill="#fee2e2"/>
  <rect x="25" y="225" width="540" height="76" fill="none" stroke="#e2e8f0" stroke-width="1"/>
  <line x1="25" y1="263" x2="565" y2="263" stroke="#94a3b8" stroke-width="1" stroke-dasharray="5,3"/>
  <line x1="125" y1="225" x2="125" y2="301" stroke="#cbd5e1" stroke-width="1" stroke-dasharray="2,2"/>
  <line x1="465" y1="225" x2="465" y2="301" stroke="#cbd5e1" stroke-width="1" stroke-dasharray="2,2"/>
  <line x1="295" y1="225" x2="295" y2="301" stroke="#94a3b8" stroke-width="1.5"/>
  <polyline points="25,228 125,228 465,298 565,298" fill="none" stroke="#dc2626" stroke-width="2.5" stroke-linejoin="round" stroke-linecap="round"/>
  <text x="30" y="243" font-size="10" fill="#15803d" font-weight="bold">MAX PROFIT</text>
  <text x="458" y="295" text-anchor="end" font-size="10" fill="#b91c1c" font-weight="bold">MAX LOSS</text>
  <text x="295" y="260" text-anchor="middle" font-size="9" fill="#64748b">B/E</text>
  <text x="125" y="311" text-anchor="middle" font-size="9" fill="#9ca3af">$70</text>
  <text x="465" y="311" text-anchor="middle" font-size="9" fill="#9ca3af">$75</text>
  <text x="543" y="300" font-size="10" fill="#9ca3af">Stock &#8594;</text>
  <line x1="15" y1="317" x2="575" y2="317" stroke="#e2e8f0" stroke-width="1"/>

  <text x="20" y="331" font-size="10" font-weight="bold" fill="#64748b" letter-spacing="1">GREEKS AT A GLANCE</text>
  <text x="20" y="348" font-size="12" fill="#374151">Delta (&#916;)</text>
  <text x="95" y="348" font-size="13" font-weight="bold" fill="#b91c1c">&#8722; Negative</text>
  <text x="200" y="348" font-size="11" fill="#64748b">profits as stock falls</text>
  <text x="20" y="364" font-size="12" fill="#374151">Theta (&#952;)</text>
  <text x="95" y="364" font-size="13" font-weight="bold" fill="#b91c1c">&#8722; Against you</text>
  <text x="215" y="364" font-size="11" fill="#64748b">time decay costs you daily</text>
  <text x="20" y="380" font-size="12" fill="#374151">Gamma (&#947;)</text>
  <text x="95" y="380" font-size="13" font-weight="bold" fill="#15803d">+ Positive</text>
  <text x="210" y="380" font-size="11" fill="#64748b">big drops accelerate your gains</text>
  <line x1="15" y1="390" x2="575" y2="390" stroke="#e2e8f0" stroke-width="1"/>
  <text x="20" y="396" font-size="11" fill="#374151"><tspan font-weight="bold">Best when: </tspan>Bearish; stock expected to fall past lower put strike before expiry</text>
</g>

<!-- ===== COMPARISON TABLE ===== -->
<rect x="0" y="921" width="1200" height="179" fill="#f1f5f9"/>
<line x1="0" y1="921" x2="1200" y2="921" stroke="#cbd5e1" stroke-width="1.5"/>
<text x="600" y="937" text-anchor="middle" font-size="10" font-weight="bold" fill="#94a3b8" letter-spacing="2">QUICK COMPARISON</text>
<line x1="10" y1="944" x2="1190" y2="944" stroke="#e2e8f0" stroke-width="1"/>

<!-- Column headers -->
<text x="22"  y="959" font-size="10" font-weight="bold" fill="#475569">STRATEGY</text>
<text x="185" y="959" font-size="10" font-weight="bold" fill="#475569">DIRECTION</text>
<text x="325" y="959" font-size="10" font-weight="bold" fill="#475569">ENTRY</text>
<text x="415" y="959" font-size="10" font-weight="bold" fill="#475569">MAX PROFIT</text>
<text x="585" y="959" font-size="10" font-weight="bold" fill="#475569">MAX LOSS</text>
<text x="770" y="959" font-size="10" font-weight="bold" fill="#475569">THETA</text>
<text x="870" y="959" font-size="10" font-weight="bold" fill="#475569">WIN CONDITION</text>
<line x1="10" y1="963" x2="1190" y2="963" stroke="#e2e8f0" stroke-width="1"/>

<!-- Row 1: Bull Call -->
<rect x="10" y="969" width="11" height="11" fill="#16a34a" rx="2"/>
<text x="26"  y="979" font-size="11" font-weight="bold" fill="#374151">Bull Call</text>
<text x="185" y="979" font-size="11" fill="#374151">&#8593; Bullish</text>
<text x="325" y="979" font-size="11" font-weight="bold" fill="#b91c1c">Debit</text>
<text x="415" y="979" font-size="11" fill="#374151">Width &#8722; Debit</text>
<text x="585" y="979" font-size="11" fill="#374151">Debit paid</text>
<text x="770" y="979" font-size="11" fill="#b91c1c">&#8722; Hurts you</text>
<text x="870" y="979" font-size="11" fill="#374151">Stock rises past upper call strike</text>

<!-- Row 2: Bear Call -->
<rect x="10" y="989" width="11" height="11" fill="#dc2626" rx="2"/>
<text x="26"  y="999" font-size="11" font-weight="bold" fill="#374151">Bear Call</text>
<text x="185" y="999" font-size="11" fill="#374151">&#8595; Neutral / Bearish</text>
<text x="325" y="999" font-size="11" font-weight="bold" fill="#15803d">Credit</text>
<text x="415" y="999" font-size="11" fill="#374151">Credit received</text>
<text x="585" y="999" font-size="11" fill="#374151">Width &#8722; Credit</text>
<text x="770" y="999" font-size="11" fill="#15803d">+ Helps you</text>
<text x="870" y="999" font-size="11" fill="#374151">Stock stays flat or falls</text>

<!-- Row 3: Bull Put -->
<rect x="10" y="1009" width="11" height="11" fill="#16a34a" rx="2"/>
<text x="26"  y="1019" font-size="11" font-weight="bold" fill="#374151">Bull Put</text>
<text x="185" y="1019" font-size="11" fill="#374151">&#8593; Neutral / Bullish</text>
<text x="325" y="1019" font-size="11" font-weight="bold" fill="#15803d">Credit</text>
<text x="415" y="1019" font-size="11" fill="#374151">Credit received</text>
<text x="585" y="1019" font-size="11" fill="#374151">Width &#8722; Credit</text>
<text x="770" y="1019" font-size="11" fill="#15803d">+ Helps you</text>
<text x="870" y="1019" font-size="11" fill="#374151">Stock stays flat or rises</text>

<!-- Row 4: Bear Put -->
<rect x="10" y="1029" width="11" height="11" fill="#dc2626" rx="2"/>
<text x="26"  y="1039" font-size="11" font-weight="bold" fill="#374151">Bear Put</text>
<text x="185" y="1039" font-size="11" fill="#374151">&#8595; Bearish</text>
<text x="325" y="1039" font-size="11" font-weight="bold" fill="#b91c1c">Debit</text>
<text x="415" y="1039" font-size="11" fill="#374151">Width &#8722; Debit</text>
<text x="585" y="1039" font-size="11" fill="#374151">Debit paid</text>
<text x="770" y="1039" font-size="11" fill="#b91c1c">&#8722; Hurts you</text>
<text x="870" y="1039" font-size="11" fill="#374151">Stock falls past lower put strike</text>

<line x1="10" y1="1053" x2="1190" y2="1053" stroke="#e2e8f0" stroke-width="1"/>
<text x="600" y="1068" text-anchor="middle" font-size="9" fill="#94a3b8">Width = Upper Strike &#8722; Lower Strike &nbsp;·&nbsp; All dollar values per share; multiply by 100 for one contract &nbsp;·&nbsp; For educational purposes only</text>

</svg>
